<?xml version="1.0" encoding="UTF-8"?>
<svg version="1.1" xmlns="http://www.w3.org/2000/svg" width="561" height="228">
<path d="M0 0 C185.13 0 370.26 0 561 0 C561 75.24 561 150.48 561 228 C375.87 228 190.74 228 0 228 C0 152.76 0 77.52 0 0 Z " fill="#FEFEFE" transform="translate(0,0)"/>
<path d="M0 0 C4.54144994 -0.11647041 9.08251394 -0.18734502 13.625 -0.25 C15.55279297 -0.30027344 15.55279297 -0.30027344 17.51953125 -0.3515625 C29.41563777 -0.47483822 29.41563777 -0.47483822 34 4 C37.14938988 7.37656826 37.33609436 9.69310619 37.1875 14.25 C37.14689453 15.86648437 37.14689453 15.86648437 37.10546875 17.515625 C37.07066406 18.33546875 37.03585937 19.1553125 37 20 C37.76666992 19.98952637 38.53333984 19.97905273 39.32324219 19.96826172 C42.79879474 19.92667301 46.27429491 19.90066449 49.75 19.875 C50.9565625 19.85824219 52.163125 19.84148437 53.40625 19.82421875 C54.56640625 19.81777344 55.7265625 19.81132813 56.921875 19.8046875 C57.99018555 19.79421387 59.05849609 19.78374023 60.15917969 19.77294922 C63.00627497 20.00050152 64.54685347 20.62725836 67 22 C69.34817157 21.68691046 71.19941087 20.91300152 73.37158203 19.96533203 C78.6470646 18.56180235 83.74496009 18.75496824 89.1796875 18.8046875 C90.3475882 18.8075174 91.51548889 18.81034729 92.71878052 18.81326294 C96.43762591 18.82443027 100.15622777 18.84952896 103.875 18.875 C106.40103818 18.88503424 108.92708015 18.89415931 111.453125 18.90234375 C117.63549933 18.92435835 123.81773226 18.95780185 130 19 C130.01681485 20.76754551 130.02883675 22.53513707 130.03881836 24.30273438 C130.04602402 25.28705444 130.05322968 26.27137451 130.06065369 27.28552246 C129.99457387 30.24283961 129.53507351 32.70792294 128.5625 35.5 C128.29566406 36.2940625 128.02882813 37.088125 127.75390625 37.90625 C127.50511719 38.5971875 127.25632812 39.288125 127 40 C125.91449801 43.25650598 125.98257382 45.95910566 126.06567383 49.3605957 C126.56592801 70.56272666 126.56592801 70.56272666 120.8125 78.6875 C114.67146026 83.73679935 106.88246303 83.28770197 99.296875 83.23046875 C98.29666321 83.23001053 97.29645142 83.22955231 96.26593018 83.2290802 C94.16490482 83.22607463 92.06388136 83.21823958 89.96289062 83.20581055 C86.74601367 83.18747728 83.52942393 83.18530168 80.3125 83.18554688 C78.26562251 83.18063371 76.21874697 83.17480628 74.171875 83.16796875 C73.21142273 83.16685593 72.25097046 83.1657431 71.26141357 83.16459656 C70.36658264 83.15821671 69.47175171 83.15183685 68.54980469 83.14526367 C67.76563171 83.14145187 66.98145874 83.13764008 66.17352295 83.13371277 C64.00092627 83.00005698 62.08856984 82.59763383 60 82 C63.0774415 85.32002733 66.69223463 86.99651316 70.75 88.875 C71.8803064 89.4011792 71.8803064 89.4011792 73.03344727 89.93798828 C87.74120081 96.64224563 101.9057217 100.36198581 118.125 100.25 C119.81689453 100.26160156 119.81689453 100.26160156 121.54296875 100.2734375 C135.69720313 100.24032818 148.32068408 95.91610409 158.91015625 86.2578125 C167.24146583 77.43211752 170.842422 66.73419614 173 55 C169.37 55.99 165.74 56.98 162 58 C164 53 164 53 165 51 C165.80998573 44.38511652 163.42670538 40.39706098 160 35 C162.22797953 36.0587506 163.9306438 36.93559781 165.75 38.625 C169.06046635 40.64806277 172.26926546 40.56678467 176 40 C178.02915769 39.06057514 180.03875312 38.07401615 182 37 C182.66 37.33 183.32 37.66 184 38 C183.319375 38.969375 182.63875 39.93875 181.9375 40.9375 C179.36364402 45.42128444 179.836384 49.09815309 181 54 C181.94476554 56.91509282 181.94476554 56.91509282 183 59 C179.91489173 57.80023567 176.94952958 56.49997444 174 55 C174.03480469 55.58265625 174.06960938 56.1653125 174.10546875 56.765625 C174.55852965 70.48689783 169.81737365 84.41550808 161 95 C148.39377546 107.15600223 133.89198824 111.55113336 116.53149414 111.42138672 C97.86642138 110.787819 74.79324764 103.0832564 60.02197266 91.70629883 C49.61537808 83.75624916 40.24943233 83.7689523 27.5 84 C24.65988185 84.00820843 21.81997856 84.0039998 18.9798584 83.99829102 C17.22794448 83.99940047 15.47599417 84.01099457 13.72424316 84.03491211 C9.33530094 84.08515784 5.33818806 83.76455871 1 83 C0.67 83.33 0.34 83.66 0 84 C-6.07863768 85.08766057 -12.26108739 85.15950671 -18.41796875 85.16796875 C-19.27884598 85.17129715 -20.13972321 85.17462555 -21.02668762 85.17805481 C-22.83085603 85.18307949 -24.63503359 85.18546453 -26.43920898 85.18530273 C-29.1907468 85.1875026 -31.94189152 85.20574189 -34.69335938 85.22460938 C-36.45572781 85.22754164 -38.21809813 85.22952755 -39.98046875 85.23046875 C-40.79621872 85.23765427 -41.61196869 85.24483978 -42.45243835 85.25224304 C-47.08279173 85.23377374 -50.59404854 84.55731809 -55 83 C-57.35107512 83.6011112 -59.68345836 84.27714198 -62 85 C-65.22127679 85.40988514 -68.44358749 85.51583124 -71.6875 85.625 C-72.67484131 85.66222168 -73.66218262 85.69944336 -74.67944336 85.73779297 C-86.13673129 86.10253022 -97.60045134 86.10700639 -109.0625 86.125 C-110.04310394 86.12767883 -111.02370789 86.13035767 -112.0340271 86.13311768 C-114.86777416 86.13898201 -117.70140844 86.13723811 -120.53515625 86.1328125 C-121.38540375 86.13478638 -122.23565125 86.13676025 -123.11166382 86.13879395 C-127.85244067 86.12049736 -132.31743411 85.72036576 -137 85 C-139.00700586 85.37543119 -139.00700586 85.37543119 -141 86 C-150.98785284 86.97825403 -161.03393926 87.12196348 -171.0625 87.1875 C-172.12041748 87.20047119 -173.17833496 87.21344238 -174.26831055 87.22680664 C-180.17937511 87.23383637 -185.4088915 87.01178365 -191 85 C-193.74208582 82.12177666 -194.38706229 80.18889992 -194.296875 76.25390625 C-194.10343689 69.48019838 -193.3516175 62.76601358 -192.51074219 56.04760742 C-192.25016202 53.93881118 -192.01144371 51.82824496 -191.7734375 49.71679688 C-189.60371589 31.51791313 -189.60371589 31.51791313 -183.375 25.4375 C-178.92186983 22.74218437 -175.10618146 22.66097754 -169.984375 22.4453125 C-168.99226013 22.40326691 -168.00014526 22.36122131 -166.97796631 22.31790161 C-151.26825548 21.74037068 -135.54056792 21.85007383 -119.82275391 21.86962891 C-115.12780989 21.87541022 -110.432922 21.87197926 -105.73797989 21.86605644 C-102.09724498 21.86245361 -98.45652357 21.86358667 -94.81578827 21.86618423 C-93.08221174 21.86684993 -91.34863398 21.86603759 -89.6150589 21.86370468 C-87.21371655 21.86117367 -84.81246813 21.86502123 -82.41113281 21.87060547 C-81.34539787 21.86756912 -81.34539787 21.86756912 -80.25813293 21.86447144 C-77.22284912 21.87759 -74.90498276 22.03167241 -72 23 C-71.97421875 22.3709375 -71.9484375 21.741875 -71.921875 21.09375 C-71.42993989 13.67000198 -70.21729476 7.84974778 -64.50390625 2.7890625 C-59.74945161 0.36148142 -55.86631017 0.55711023 -50.625 0.75 C-47.44875 0.8325 -44.2725 0.915 -41 1 C-41.33 7.6 -41.66 14.2 -42 21 C-30.78 21 -19.56 21 -8 21 C-10.66703856 15.53507842 -10.66703856 15.53507842 -13.35571289 10.08081055 C-13.6830542 9.39801025 -14.01039551 8.71520996 -14.34765625 8.01171875 C-14.68804932 7.31522217 -15.02844238 6.61872559 -15.37915039 5.90112305 C-16 4 -16 4 -15 1 C-13.3264663 3.95449913 -11.66236015 6.9142018 -10 9.875 C-9.28457031 11.13763672 -9.28457031 11.13763672 -8.5546875 12.42578125 C-8.10351562 13.23144531 -7.65234375 14.03710938 -7.1875 14.8671875 C-6.55908203 15.98262939 -6.55908203 15.98262939 -5.91796875 17.12060547 C-5 19 -5 19 -5 21 C-4.22914063 20.98839844 -3.45828125 20.97679688 -2.6640625 20.96484375 C-1.66117188 20.95582031 -0.65828125 20.94679688 0.375 20.9375 C1.37273437 20.92589844 2.37046875 20.91429688 3.3984375 20.90234375 C6 21 6 21 8 22 C8.11045587 12.67436886 6.23029246 7.84844158 0 1 C0 0.67 0 0.34 0 0 Z " fill="#070607" transform="translate(348,65)"/>
<path d="M0 0 C1.12159012 -0.00960754 2.24318024 -0.01921509 3.39875793 -0.02911377 C5.21750679 -0.03548859 5.21750679 -0.03548859 7.07299805 -0.04199219 C8.31969772 -0.04769226 9.5663974 -0.05339233 10.85087585 -0.05926514 C13.49127858 -0.06871885 16.13156756 -0.07561372 18.77197266 -0.07910156 C21.47523461 -0.08349156 24.17817833 -0.09740285 26.88134766 -0.12011719 C30.77866312 -0.15057798 34.6755768 -0.16114975 38.57299805 -0.16699219 C40.38263786 -0.18551239 40.38263786 -0.18551239 42.22883606 -0.20440674 C52.7947438 -0.17637135 52.7947438 -0.17637135 57.5222168 3.16113281 C60.15007442 6.20391532 61.389812 8.23429924 61.9597168 12.22363281 C61.45558389 16.760829 60.48541565 21.06516969 59.3737793 25.48925781 C58.01022609 31.36879915 57.02492193 37.31501384 55.9753418 43.25732422 C55.40272513 46.45756029 54.80779673 49.65306659 54.2097168 52.84863281 C54.0221582 53.92435547 53.83459961 55.00007813 53.64135742 56.10839844 C51.66300228 66.49635324 47.83339167 72.69876125 39.7097168 79.34863281 C39.13157227 79.84298828 38.55342773 80.33734375 37.95776367 80.84667969 C36.18117615 82.33665751 34.36032645 83.74793584 32.5222168 85.16113281 C31.98245209 85.60522491 31.44268738 86.04931702 30.88656616 86.50686646 C24.65574644 91.08203336 18.5955007 90.90311471 11.08081055 90.86035156 C9.79916519 90.86750687 8.51751984 90.87466217 7.19703674 90.8820343 C4.49629985 90.89385729 1.79639011 90.88730244 -0.90429688 90.86791992 C-4.35024124 90.84500264 -7.79372456 90.87186661 -11.23942661 90.91298199 C-14.54949909 90.94482473 -17.85897438 90.93155865 -21.16918945 90.92285156 C-22.398517 90.938134 -23.62784454 90.95341644 -24.89442444 90.96916199 C-31.48362561 90.87966876 -35.589002 90.45025609 -40.3167572 85.64216614 C-42.92089947 82.32025821 -42.76671524 79.2117736 -42.4777832 75.16113281 C-41.97882562 71.75838267 -41.30387379 68.40236209 -40.6027832 65.03613281 C-40.34174805 63.71548828 -40.34174805 63.71548828 -40.07543945 62.36816406 C-39.20273186 58.08220012 -38.15522854 54.211181 -36.4777832 50.16113281 C-36.4777832 49.04738281 -36.4777832 47.93363281 -36.4777832 46.78613281 C-36.4777832 42.82524316 -35.61402939 39.9486201 -34.4777832 36.16113281 C-34.17435218 34.32970982 -33.88355339 32.49616651 -33.6027832 30.66113281 C-31.7273431 20.38819973 -26.2669695 15.661381 -18.4777832 9.16113281 C-17.56383789 8.39671875 -16.64989258 7.63230469 -15.70825195 6.84472656 C-10.29980192 2.41819132 -7.13046622 0.04928617 0 0 Z " fill="#FAB4E4" transform="translate(77.477783203125,75.8388671875)"/>
<path d="M0 0 C1.12159012 -0.00960754 2.24318024 -0.01921509 3.39875793 -0.02911377 C5.21750679 -0.03548859 5.21750679 -0.03548859 7.07299805 -0.04199219 C8.31969772 -0.04769226 9.5663974 -0.05339233 10.85087585 -0.05926514 C13.49127858 -0.06871885 16.13156756 -0.07561372 18.77197266 -0.07910156 C21.47523461 -0.08349156 24.17817833 -0.09740285 26.88134766 -0.12011719 C30.77866312 -0.15057798 34.6755768 -0.16114975 38.57299805 -0.16699219 C40.38263786 -0.18551239 40.38263786 -0.18551239 42.22883606 -0.20440674 C52.7947438 -0.17637135 52.7947438 -0.17637135 57.5222168 3.16113281 C60.15007442 6.20391532 61.389812 8.23429924 61.9597168 12.22363281 C61.45558389 16.760829 60.48541565 21.06516969 59.3737793 25.48925781 C58.01022609 31.36879915 57.02492193 37.31501384 55.9753418 43.25732422 C55.40272513 46.45756029 54.80779673 49.65306659 54.2097168 52.84863281 C54.0221582 53.92435547 53.83459961 55.00007813 53.64135742 56.10839844 C51.66300228 66.49635324 47.83339167 72.69876125 39.7097168 79.34863281 C39.13157227 79.84298828 38.55342773 80.33734375 37.95776367 80.84667969 C36.18117615 82.33665751 34.36032645 83.74793584 32.5222168 85.16113281 C31.98245209 85.60522491 31.44268738 86.04931702 30.88656616 86.50686646 C24.65574644 91.08203336 18.5955007 90.90311471 11.08081055 90.86035156 C9.79916519 90.86750687 8.51751984 90.87466217 7.19703674 90.8820343 C4.49629985 90.89385729 1.79639011 90.88730244 -0.90429688 90.86791992 C-4.35024124 90.84500264 -7.79372456 90.87186661 -11.23942661 90.91298199 C-14.54949909 90.94482473 -17.85897438 90.93155865 -21.16918945 90.92285156 C-22.398517 90.938134 -23.62784454 90.95341644 -24.89442444 90.96916199 C-31.48362561 90.87966876 -35.589002 90.45025609 -40.3167572 85.64216614 C-42.92089947 82.32025821 -42.76671524 79.2117736 -42.4777832 75.16113281 C-41.97882562 71.75838267 -41.30387379 68.40236209 -40.6027832 65.03613281 C-40.34174805 63.71548828 -40.34174805 63.71548828 -40.07543945 62.36816406 C-39.20273186 58.08220012 -38.15522854 54.211181 -36.4777832 50.16113281 C-36.4777832 49.04738281 -36.4777832 47.93363281 -36.4777832 46.78613281 C-36.4777832 42.82524316 -35.61402939 39.9486201 -34.4777832 36.16113281 C-34.17435218 34.32970982 -33.88355339 32.49616651 -33.6027832 30.66113281 C-31.7273431 20.38819973 -26.2669695 15.661381 -18.4777832 9.16113281 C-17.56383789 8.39671875 -16.64989258 7.63230469 -15.70825195 6.84472656 C-10.29980192 2.41819132 -7.13046622 0.04928617 0 0 Z M-11.4777832 8.16113281 C-16.75660507 15.78609773 -19.10236715 27.9485196 -18.4777832 37.16113281 C-16.64353158 38.99538443 -13.88497938 38.42073064 -11.4152832 38.47363281 C-3.14106404 38.35506672 4.94774089 37.70044774 12.5222168 34.16113281 C14.88968091 31.37061669 16.22234396 28.9108149 17.5769043 25.52441406 C18.5222168 23.16113281 18.5222168 23.16113281 20.5222168 22.16113281 C20.5821582 23.39089844 20.5821582 23.39089844 20.64331055 24.64550781 C20.97129402 28.03062123 21.39014505 30.94861223 22.5222168 34.16113281 C25.72776222 36.77889391 29.36527584 38.16113281 33.5222168 38.16113281 C33.0272168 39.15113281 33.0272168 39.15113281 32.5222168 40.16113281 C30.63539877 40.67465249 28.73729161 41.14697606 26.8347168 41.59863281 C22.91191247 42.80995006 21.00048763 43.52959372 18.4987793 46.83300781 C17.50076595 48.78850604 16.56482388 50.77743081 15.70581055 52.79785156 C14.5222168 55.16113281 14.5222168 55.16113281 11.5222168 56.16113281 C11.0272168 50.22113281 11.0272168 50.22113281 10.5222168 44.16113281 C3.10737671 42.1389037 -3.50976819 40.86255193 -11.1652832 40.84863281 C-11.86008789 40.84347656 -12.55489258 40.83832031 -13.27075195 40.83300781 C-17.32491178 40.79673969 -17.32491178 40.79673969 -20.4777832 43.16113281 C-21.46713142 46.32633449 -22.02421309 49.59699562 -22.6652832 52.84863281 C-22.85541992 53.73486328 -23.04555664 54.62109375 -23.24145508 55.53417969 C-24.26888369 60.65615773 -24.90609019 65.02310543 -23.4777832 70.16113281 C-21.37985135 72.83083731 -20.20748292 74.02087433 -16.8352356 74.66906738 C-15.8318515 74.67224976 -14.82846741 74.67543213 -13.79467773 74.67871094 C-12.6531424 74.69131958 -11.51160706 74.70392822 -10.33547974 74.71691895 C-9.10626801 74.70882202 -7.87705627 74.7007251 -6.6105957 74.69238281 C-5.34311493 74.69620972 -4.07563416 74.70003662 -2.76974487 74.70397949 C-0.08772218 74.70670246 2.59284366 74.70132941 5.2746582 74.68261719 C8.70017134 74.6598725 12.1244277 74.67292235 15.54989433 74.69690704 C18.8297749 74.71490375 22.10950726 74.70227088 25.3894043 74.69238281 C27.2271492 74.7045282 27.2271492 74.7045282 29.10202026 74.71691895 C35.48453223 74.64680914 39.73553667 74.59559332 44.5222168 70.16113281 C48.33376964 64.34744406 49.13076017 57.25728963 50.0300293 50.50488281 C50.51254467 47.22684188 51.18641062 44.06941319 51.9597168 40.84863281 C56.17710336 25.13644495 56.17710336 25.13644495 56.5222168 9.16113281 C53.80817135 5.9227332 52.09086034 4.43613445 47.90115356 3.70162964 C44.6405951 3.51499052 41.41685249 3.49458065 38.15112305 3.53222656 C36.95543198 3.52981461 35.75974091 3.52740265 34.52781677 3.5249176 C32.00369953 3.52589542 29.47956067 3.5392731 26.95556641 3.56420898 C23.10138705 3.59848456 19.24950532 3.58486946 15.39526367 3.56542969 C12.93887374 3.57232929 10.48248971 3.5820027 8.02612305 3.59472656 C6.87801651 3.58976669 5.72990997 3.58480682 4.54701233 3.57969666 C-1.9903743 3.67544563 -6.20897354 4.16644739 -11.4777832 8.16113281 Z " fill="#130913" transform="translate(77.477783203125,75.8388671875)"/>
<path d="M0 0 C1.58246707 -0.08153933 3.16616273 -0.13943557 4.75 -0.1875 C6.07257813 -0.23970703 6.07257813 -0.23970703 7.421875 -0.29296875 C10.49390559 0.05612564 11.80295597 0.85601093 14 3 C14.42578125 5.70703125 14.42578125 5.70703125 14.3125 8.8125 C14.27769531 9.87597656 14.24289062 10.93945312 14.20703125 12.03515625 C13.99473629 15.0753803 13.66164447 18.02259987 13 21 C13.90363281 20.83886719 14.80726563 20.67773438 15.73828125 20.51171875 C21.20003865 19.73500268 26.68127377 19.81582301 32.1875 19.8125 C33.80688477 19.79413086 33.80688477 19.79413086 35.45898438 19.77539062 C36.49732422 19.77345703 37.53566406 19.77152344 38.60546875 19.76953125 C40.01542114 19.76336792 40.01542114 19.76336792 41.45385742 19.75708008 C44.09894642 20.00944018 45.7315005 20.65542028 48 22 C48.63434485 32.20237973 47.53815684 42.0744257 46.1875 52.1875 C45.9395166 54.1214563 45.9395166 54.1214563 45.68652344 56.09448242 C45.51540039 57.31498291 45.34427734 58.5354834 45.16796875 59.79296875 C45.01610107 60.8914917 44.8642334 61.99001465 44.70776367 63.12182617 C43.96075175 66.15960593 43.16002259 67.75962575 41 70 C38.24359952 70.91880016 36.58658196 71.13083902 33.74389648 71.14526367 C32.88968613 71.15164352 32.03547577 71.15802338 31.15538025 71.16459656 C30.2365657 71.16570938 29.31775116 71.1668222 28.37109375 71.16796875 C26.95293114 71.17296135 26.95293114 71.17296135 25.50611877 71.17805481 C23.50807176 71.18311671 21.51001631 71.18546336 19.51196289 71.18530273 C16.44598613 71.18749394 13.38036643 71.20567032 10.31445312 71.22460938 C8.37500123 71.22754243 6.43554763 71.22952781 4.49609375 71.23046875 C3.57525497 71.23765427 2.6544162 71.24483978 1.70567322 71.25224304 C0.42908592 71.2476281 0.42908592 71.2476281 -0.87329102 71.24291992 C-1.62369156 71.24434494 -2.3740921 71.24576996 -3.14723206 71.24723816 C-5 71 -5 71 -7 69 C-7.85824384 60.16846695 -6.62586766 51.23035288 -5.46875 42.48046875 C-5.31337769 41.25588455 -5.15800537 40.03130035 -4.9979248 38.76960754 C-4.50620736 34.90788801 -4.00330818 31.04772414 -3.5 27.1875 C-3.16109934 24.54903797 -2.82477 21.91025601 -2.48828125 19.27148438 C-1.66737054 12.84653899 -0.83730659 6.42282812 0 0 Z " fill="#F8B3E2" transform="translate(360,74)"/>
<path d="M0 0 C0.82501511 -0.00191345 1.65003021 -0.0038269 2.50004578 -0.00579834 C4.22863066 -0.00714984 5.95722606 -0.00352634 7.68579102 0.00488281 C10.33437629 0.01566636 12.98229394 0.00491746 15.63085938 -0.0078125 C17.31640774 -0.00649206 19.0019557 -0.00393207 20.6875 0 C21.47812332 -0.00404846 22.26874664 -0.00809692 23.08332825 -0.01226807 C26.91942465 0.02064694 28.74435626 0.08738334 32.01171875 2.265625 C33.40480574 10.24655455 31.50876277 19.09493401 30.4675293 27.06542969 C30.19713535 29.15673866 29.94680515 31.24986218 29.69726562 33.34375 C29.52594443 34.69025801 29.35346038 36.03661869 29.1796875 37.3828125 C29.02781982 38.58534668 28.87595215 39.78788086 28.71948242 41.02685547 C27.96090945 44.49813144 27.31539337 46.55382261 25.01171875 49.265625 C19.68415503 51.48130378 14.53957838 51.5595776 8.8671875 51.53125 C7.59069084 51.53412018 7.59069084 51.53412018 6.28840637 51.53704834 C4.50257061 51.53840183 2.71672473 51.53476419 0.9309082 51.52636719 C-1.80995468 51.51558893 -4.55017203 51.52632464 -7.29101562 51.5390625 C-9.02994937 51.53774206 -10.7688827 51.53518205 -12.5078125 51.53125 C-13.32860794 51.53529846 -14.14940338 51.53934692 -14.99507141 51.54351807 C-20.75831729 51.49558896 -20.75831729 51.49558896 -22.98828125 49.265625 C-24.01917645 39.61269717 -22.76675644 29.73464547 -21.67578125 20.140625 C-21.55823486 19.06224365 -21.44068848 17.9838623 -21.31958008 16.87280273 C-19.99114115 6.04241786 -19.99114115 6.04241786 -16.98828125 2.265625 C-11.23917626 0.43528803 -6.00165671 -0.03113057 0 0 Z " fill="#F9B3E2" transform="translate(237.98828125,95.734375)"/>
<path d="M0 0 C0.82264343 -0.0033284 1.64528687 -0.0066568 2.49285889 -0.01008606 C4.21723883 -0.01511368 5.94162836 -0.01749569 7.66601562 -0.01733398 C10.30354572 -0.01953682 12.94066777 -0.03778065 15.578125 -0.05664062 C17.26041525 -0.05957218 18.94270746 -0.06155857 20.625 -0.0625 C21.41046204 -0.06968552 22.19592407 -0.07687103 23.00518799 -0.08427429 C26.82919634 -0.06826011 29.80778108 0.00159662 33.046875 2.16796875 C33.33531046 10.53370219 32.5850049 18.68277119 31.50268555 26.96777344 C31.2322916 29.05908241 30.9819614 31.15220593 30.73242188 33.24609375 C30.56110068 34.59260176 30.38861663 35.93896244 30.21484375 37.28515625 C30.06297607 38.48769043 29.9111084 39.69022461 29.75463867 40.92919922 C29.00339606 44.36693103 28.27995069 46.44810011 26.046875 49.16796875 C21.13658389 51.60543487 16.17825123 51.45960375 10.81640625 51.43359375 C9.94416916 51.4355072 9.07193207 51.43742065 8.17326355 51.43939209 C6.33856923 51.44074769 4.50386512 51.43709508 2.66918945 51.42871094 C-0.14198186 51.41796356 -2.95251979 51.42864725 -5.76367188 51.44140625 C-7.54948058 51.4400853 -9.33528889 51.43752426 -11.12109375 51.43359375 C-11.96173874 51.43764221 -12.80238373 51.44169067 -13.66850281 51.44586182 C-19.60818221 51.39793061 -19.60818221 51.39793061 -22.953125 49.16796875 C-23.45174769 43.38394556 -22.80388622 37.68133706 -22.203125 31.91796875 C-22.11091675 30.89002197 -22.11091675 30.89002197 -22.0168457 29.84130859 C-21.46871775 25.18477702 -20.50015473 22.29217374 -16.953125 19.16796875 C-10.28637185 17.29548856 -2.8857336 18.05863529 3.984375 18.10546875 C5.24056641 18.10998047 6.49675781 18.11449219 7.79101562 18.11914062 C10.87635163 18.13087194 13.96158816 18.14728775 17.046875 18.16796875 C17.046875 17.17796875 17.046875 16.18796875 17.046875 15.16796875 C16.08797363 15.17844238 15.12907227 15.18891602 14.14111328 15.19970703 C10.58906781 15.23586203 7.03703866 15.25885268 3.48486328 15.27783203 C1.94642402 15.28789993 0.40800393 15.30155521 -1.13037109 15.31884766 C-3.33956633 15.34306192 -5.54850895 15.35444366 -7.7578125 15.36328125 C-8.44745087 15.37360382 -9.13708923 15.38392639 -9.84762573 15.39456177 C-11.55113406 15.39496353 -13.25398443 15.28987901 -14.953125 15.16796875 C-16.953125 13.16796875 -16.953125 13.16796875 -17.1484375 10.34765625 C-17.12523437 9.25710937 -17.10203125 8.1665625 -17.078125 7.04296875 C-17.06007813 5.94726562 -17.04203125 4.8515625 -17.0234375 3.72265625 C-17.00023437 2.87960938 -16.97703125 2.0365625 -16.953125 1.16796875 C-11.26253424 0.35831544 -5.74409457 0.00822286 0 0 Z " fill="#F8B3E2" transform="translate(317.953125,94.83203125)"/>
<path d="M0 0 C1.01394333 0.00565979 2.02788666 0.01131958 3.07255554 0.01715088 C6.30276211 0.03949502 9.53184892 0.08968902 12.76171875 0.140625 C14.95506208 0.16069248 17.14842283 0.17894282 19.34179688 0.1953125 C24.71131788 0.23935321 30.0801883 0.30624584 35.44921875 0.390625 C35.48650724 1.82792678 35.51308758 3.26550898 35.53515625 4.703125 C35.55908447 5.90388672 35.55908447 5.90388672 35.58349609 7.12890625 C35.44921875 9.390625 35.44921875 9.390625 34.07421875 12.390625 C27.65255583 17.28332056 16.55744268 15.5142015 8.82421875 15.453125 C7.72464844 15.44861328 6.62507813 15.44410156 5.4921875 15.43945312 C2.81113872 15.42779639 0.13020943 15.41143517 -2.55078125 15.390625 C-2.55078125 16.380625 -2.55078125 17.370625 -2.55078125 18.390625 C-1.56158691 18.38538818 -0.57239258 18.38015137 0.44677734 18.37475586 C4.11066791 18.35667977 7.77455452 18.34518342 11.43847656 18.33569336 C13.02539736 18.33065912 14.61231352 18.32383131 16.19921875 18.31518555 C18.47787624 18.30308018 20.75647251 18.29738767 23.03515625 18.29296875 C24.10242447 18.28522682 24.10242447 18.28522682 25.19125366 18.27732849 C30.22147534 18.27675329 30.22147534 18.27675329 32.44921875 19.390625 C33.10322977 39.83452512 33.10322977 39.83452512 29.44921875 48.390625 C25.58364389 50.96767491 22.199352 50.85132344 17.69921875 51.015625 C16.82974609 51.05139648 15.96027344 51.08716797 15.06445312 51.12402344 C12.19297063 51.23086457 9.3216767 51.31453962 6.44921875 51.390625 C5.41732422 51.41930664 4.38542969 51.44798828 3.32226562 51.47753906 C0.19785472 51.55357987 -2.92569679 51.60234446 -6.05078125 51.640625 C-7.03530273 51.66205566 -8.01982422 51.68348633 -9.03417969 51.70556641 C-9.9574707 51.70991699 -10.88076172 51.71426758 -11.83203125 51.71875 C-13.0550293 51.73276855 -13.0550293 51.73276855 -14.30273438 51.74707031 C-17.11690167 51.3008622 -18.49070442 50.32987962 -20.55078125 48.390625 C-20.9765625 45.98046875 -20.9765625 45.98046875 -20.86328125 43.328125 C-20.83878906 42.45027344 -20.81429688 41.57242188 -20.7890625 40.66796875 C-20.55078125 38.390625 -20.55078125 38.390625 -19.55078125 36.390625 C-7.67078125 36.390625 4.20921875 36.390625 16.44921875 36.390625 C16.44921875 35.400625 16.44921875 34.410625 16.44921875 33.390625 C15.4955542 33.40109863 14.54188965 33.41157227 13.55932617 33.42236328 C10.02030187 33.45857001 6.48129395 33.48152784 2.94213867 33.50048828 C1.41053514 33.51054435 -0.1210492 33.524191 -1.65258789 33.54150391 C-3.85437761 33.56576998 -6.05591344 33.57711188 -8.2578125 33.5859375 C-8.94228958 33.59626007 -9.62676666 33.60658264 -10.33198547 33.61721802 C-13.98139786 33.61807882 -15.42226627 33.47630166 -18.55078125 31.390625 C-19.62133729 25.5162318 -18.28379703 18.92118506 -17.36328125 13.078125 C-17.21149414 11.9015332 -17.21149414 11.9015332 -17.05664062 10.70117188 C-16.93740234 9.94255859 -16.81816406 9.18394531 -16.6953125 8.40234375 C-16.59581299 7.72647217 -16.49631348 7.05060059 -16.39379883 6.35424805 C-13.30004982 -0.85195621 -6.68361515 -0.14074454 0 0 Z " fill="#F8B3E2" transform="translate(430.55078125,93.609375)"/>
<path d="M0 0 C0.94594025 0.00141495 1.89188049 0.0028299 2.8664856 0.00428772 C5.87196079 0.00986141 8.87736003 0.02240905 11.8828125 0.03515625 C13.92708225 0.04017465 15.97135318 0.04473696 18.015625 0.04882812 C23.01304986 0.05982222 28.01041833 0.07706868 33.0078125 0.09765625 C32.89020228 1.71169685 32.7602377 3.32484071 32.625 4.9375 C32.55394043 5.835896 32.48288086 6.73429199 32.40966797 7.65991211 C32.0078125 10.09765625 32.0078125 10.09765625 30.1328125 12.66015625 C26.22272397 15.30521614 22.76205706 15.27791063 18.15234375 15.4140625 C17.49070724 15.4348436 16.82907074 15.45562469 16.14738464 15.47703552 C14.03846398 15.54230352 11.92942115 15.60130969 9.8203125 15.66015625 C8.38865935 15.70336314 6.95701846 15.74697813 5.52539062 15.79101562 C2.01965454 15.8987281 -1.48617725 15.99796933 -4.9921875 16.09765625 C-5.9821875 22.69765625 -6.9721875 29.29765625 -7.9921875 36.09765625 C3.8878125 36.09765625 15.7678125 36.09765625 28.0078125 36.09765625 C28.0078125 45.3035386 28.0078125 45.3035386 25.0078125 49.09765625 C17.05882261 52.23281341 7.43970435 51.43601869 -0.96264648 51.41333008 C-3.44883591 51.41013162 -5.93387565 51.43383333 -8.41992188 51.45898438 C-10.00520684 51.46125414 -11.59049499 51.46196237 -13.17578125 51.4609375 C-13.9163829 51.47014725 -14.65698456 51.47935699 -15.42002869 51.48884583 C-18.35190041 51.46231159 -20.46964421 51.44025343 -22.96166992 49.80639648 C-26.7090342 43.59274982 -23.3031588 32.34312489 -22.39306641 25.44873047 C-22.11608895 23.33928976 -21.85246874 21.22845768 -21.58984375 19.1171875 C-21.4148596 17.76161562 -21.23910547 16.40614286 -21.0625 15.05078125 C-20.90539551 13.83551758 -20.74829102 12.62025391 -20.58642578 11.36816406 C-19.82495635 7.17726656 -19.03065001 4.13611876 -15.9921875 1.09765625 C-10.71970996 -0.20733599 -5.39454319 -0.03060975 0 0 Z " fill="#F8B3E1" transform="translate(180.9921875,96.90234375)"/>
<path d="M0 0 C1.35158203 0.0143811 1.35158203 0.0143811 2.73046875 0.02905273 C3.76107422 0.04754272 3.76107422 0.04754272 4.8125 0.06640625 C3.70014576 10.4263228 2.55376382 20.78197923 1.37255859 31.13427734 C1.01144857 34.3005117 0.65745547 37.46737997 0.31103516 40.63525391 C-0.14172644 44.76143697 -0.63118314 48.88243476 -1.125 53.00390625 C-1.32464355 54.8748999 -1.32464355 54.8748999 -1.52832031 56.78369141 C-2.70962577 66.24867013 -2.70962577 66.24867013 -5.453125 69.36328125 C-9.99154822 72.19007057 -14.04837803 71.37599191 -19.1875 71.06640625 C-18.52344514 59.64129331 -17.08046051 48.31285559 -15.65844727 36.96240234 C-15.24842646 33.67880475 -14.84765225 30.39415957 -14.44726562 27.109375 C-14.18545644 25.00383647 -13.92310577 22.89836518 -13.66015625 20.79296875 C-13.5423732 19.81993805 -13.42459015 18.84690735 -13.30323792 17.84439087 C-11.59865874 4.43346628 -11.59865874 4.43346628 -8.1875 1.12890625 C-5.14742038 0.05221138 -3.18838173 -0.04399553 0 0 Z " fill="#F5B1DF" transform="translate(291.1875,74.93359375)"/>
<path d="M0 0 C6.93 0 13.86 0 21 0 C21 7.63413847 20.35767034 13.61766753 19 21 C12.07 21 5.14 21 -2 21 C-2 13.36586153 -1.35767034 7.38233247 0 0 Z " fill="#060506" transform="translate(371,109)"/>
<path d="M0 0 C0.83265381 0.00523682 1.66530762 0.01047363 2.52319336 0.01586914 C3.42231445 0.0190918 4.32143555 0.02231445 5.24780273 0.02563477 C6.66609375 0.03820312 6.66609375 0.03820312 8.11303711 0.05102539 C9.06243164 0.05553711 10.01182617 0.06004883 10.98999023 0.06469727 C13.34356776 0.07652429 15.69702188 0.09300514 18.05053711 0.11352539 C17.93521782 2.30155709 17.80781051 4.48895315 17.67553711 6.67602539 C17.60592773 7.89418945 17.53631836 9.11235352 17.46459961 10.36743164 C17.05053711 14.11352539 17.05053711 14.11352539 15.05053711 21.11352539 C8.45053711 21.11352539 1.85053711 21.11352539 -4.94946289 21.11352539 C-5.12519019 14.17229717 -5.07239617 7.77674664 -2.94946289 1.11352539 C-1.94946289 0.11352539 -1.94946289 0.11352539 0 0 Z " fill="#030303" transform="translate(235.949462890625,110.886474609375)"/>
<path d="M0 0 C0.33 0 0.66 0 1 0 C1.01417969 0.845625 1.02835937 1.69125 1.04296875 2.5625 C1.34368738 9.71472691 1.81904157 15.68820928 7 21 C10.69092728 23.65265614 13.83825123 24.5483216 18.3125 25.1875 C19.91544922 25.42533203 19.91544922 25.42533203 21.55078125 25.66796875 C22.76314453 25.83232422 22.76314453 25.83232422 24 26 C24 26.33 24 26.66 24 27 C22.83984375 27.02126953 22.83984375 27.02126953 21.65625 27.04296875 C14.61793841 27.36526767 9.28553301 28.09747663 4 33 C-0.19982235 38.52608205 -1.06678023 44.20959827 -2 51 C-2.33 51 -2.66 51 -3 51 C-3.03738281 50.13117188 -3.07476562 49.26234375 -3.11328125 48.3671875 C-3.56412725 38.1929153 -3.56412725 38.1929153 -9.08984375 29.98828125 C-12.72556682 27.50427717 -16.05710481 26.67789672 -20.3125 25.75 C-21.05306641 25.57726562 -21.79363281 25.40453125 -22.55664062 25.2265625 C-24.36836355 24.80577524 -26.18384332 24.4012191 -28 24 C-28 23.67 -28 23.34 -28 23 C-27.07058594 22.96261719 -26.14117187 22.92523438 -25.18359375 22.88671875 C-13.86198453 22.57822311 -13.86198453 22.57822311 -4.75 16.625 C-1.81903482 11.67267953 -1.09144434 5.57298095 0 0 Z " fill="#140E11" transform="translate(330,30)"/>
<path d="M0 0 C2.22797953 1.0587506 3.9306438 1.93559781 5.75 3.625 C9.06046635 5.64806277 12.26926546 5.56678467 16 5 C18.02915769 4.06057514 20.03875312 3.07401615 22 2 C22.66 2.33 23.32 2.66 24 3 C23.319375 3.969375 22.63875 4.93875 21.9375 5.9375 C19.36364402 10.42128444 19.836384 14.09815309 21 19 C21.94476554 21.91509282 21.94476554 21.91509282 23 24 C19.89656201 22.79310745 16.98806107 21.49403054 14 20 C14 23.3 14 26.6 14 30 C13.34 29.34 12.68 28.68 12 28 C12.03287583 25.27130593 12.56397771 22.7033382 13 20 C7.555 21.485 7.555 21.485 2 23 C4 18 4 18 5 16 C5.80998573 9.38511652 3.42670538 5.39706098 0 0 Z " fill="#121212" transform="translate(508,100)"/>
<path d="M0 0 C-0.33 2.64 -0.66 5.28 -1 8 C-10.24 8 -19.48 8 -29 8 C-28.67 5.69 -28.34 3.38 -28 1 C-18.62087413 0.20177652 -9.41213252 -0.12873737 0 0 Z " fill="#F7F7F7" transform="translate(214,115)"/>
<path d="M0 0 C0.99 0 1.98 0 3 0 C3.33 1.65 3.66 3.3 4 5 C7.63 5 11.26 5 15 5 C15.125 12.625 15.125 12.625 14 16 C13.01 16 12.02 16 11 16 C11 13.69 11 11.38 11 9 C10.67 11.31 10.34 13.62 10 16 C7.36 16 4.72 16 2 16 C2 14.02 2 12.04 2 10 C1.34 11.98 0.68 13.96 0 16 C-0.99 15.67 -1.98 15.34 -3 15 C-2.68917128 13.24970238 -2.37626821 11.49977306 -2.0625 9.75 C-1.88847656 8.77546875 -1.71445312 7.8009375 -1.53515625 6.796875 C-1.09620271 4.50278205 -0.59651408 2.25708029 0 0 Z " fill="#1C1C1C" transform="translate(370,155)"/>
<path d="M0 0 C2.22189824 2.22189824 2.92598892 4.08482708 4 7 C6.97 7.33 9.94 7.66 13 8 C13 8.66 13 9.32 13 10 C10.36 10 7.72 10 5 10 C5.495 13.96 5.495 13.96 6 18 C4 16 4 16 2 11 C-15.49 10.67 -32.98 10.34 -51 10 C-51 9.34 -51 8.68 -51 8 C-33.84 8 -16.68 8 1 8 C0.505 4.04 0.505 4.04 0 0 Z " fill="#757575" transform="translate(224,153)"/>
<path d="M0 0 C3.63 0 7.26 0 11 0 C11.125 7.625 11.125 7.625 10 11 C6.37 11 2.74 11 -1 11 C-0.67 7.37 -0.34 3.74 0 0 Z " fill="#0D0D0D" transform="translate(267,160)"/>
<path d="M0 0 C3.63 0 7.26 0 11 0 C11.125 7.625 11.125 7.625 10 11 C6.37 11 2.74 11 -1 11 C-0.67 7.37 -0.34 3.74 0 0 Z " fill="#080808" transform="translate(254,160)"/>
<path d="M0 0 C1.51400391 0.01740234 1.51400391 0.01740234 3.05859375 0.03515625 C4.07050781 0.04417969 5.08242188 0.05320313 6.125 0.0625 C7.29869141 0.07990234 7.29869141 0.07990234 8.49609375 0.09765625 C7.99157156 3.84553537 7.41450142 7.42402559 6.49609375 11.09765625 C2.86609375 11.09765625 -0.76390625 11.09765625 -4.50390625 11.09765625 C-3.53277832 0.13778387 -3.53277832 0.13778387 0 0 Z " fill="#131313" transform="translate(328.50390625,159.90234375)"/>
<path d="M0 0 C3.63 0 7.26 0 11 0 C11.09202608 3.95712151 10.78947104 7.0526448 10 11 C6.37 11 2.74 11 -1 11 C-1.125 3.375 -1.125 3.375 0 0 Z " fill="#161616" transform="translate(387,160)"/>
<path d="M0 0 C3.63 0 7.26 0 11 0 C10.67 3.63 10.34 7.26 10 11 C6.37 11 2.74 11 -1 11 C-1.09202608 7.04287849 -0.78947104 3.9473552 0 0 Z " fill="#101010" transform="translate(338,160)"/>
<path d="M0 0 C1.32 0 2.64 0 4 0 C3.67 2.97 3.34 5.94 3 9 C4.65 9 6.3 9 8 9 C8 7.68 8 6.36 8 5 C8.99 5 9.98 5 11 5 C11.0270043 6.45823212 11.04639787 7.91660675 11.0625 9.375 C11.07410156 10.18710938 11.08570313 10.99921875 11.09765625 11.8359375 C11 14 11 14 10 16 C9.01 16 8.02 16 7 16 C7 14.68 7 13.36 7 12 C5.35 12 3.7 12 2 12 C1.67 13.32 1.34 14.64 1 16 C0.01 15.67 -0.98 15.34 -2 15 C-1.34 10.05 -0.68 5.1 0 0 Z " fill="#0E0E0E" transform="translate(293,155)"/>
<path d="M0 0 C1.32 0 2.64 0 4 0 C4 1.65 4 3.3 4 5 C5.32 5 6.64 5 8 5 C8 5.99 8 6.98 8 8 C6.35 8 4.7 8 3 8 C3 9.65 3 11.3 3 13 C4.32 13 5.64 13 7 13 C6.67 13.99 6.34 14.98 6 16 C3.69 16 1.38 16 -1 16 C-1 13.36 -1 10.72 -1 8 C-1.66 8 -2.32 8 -3 8 C-3 7.01 -3 6.02 -3 5 C-2.01 5 -1.02 5 0 5 C0 3.35 0 1.7 0 0 Z " fill="#181818" transform="translate(359,155)"/>
<path d="M0 0 C0.44730469 0.42152344 0.89460938 0.84304687 1.35546875 1.27734375 C5.98399766 5.5377979 5.98399766 5.5377979 12 7 C12 7.33 12 7.66 12 8 C10.72125 8.12375 9.4425 8.2475 8.125 8.375 C4.65209064 8.69042399 4.65209064 8.69042399 2 11 C1.30251417 12.31747324 0.63040043 13.64914193 0 15 C-0.350625 14.05125 -0.70125 13.1025 -1.0625 12.125 C-2.7714341 8.65663938 -2.7714341 8.65663938 -6.6875 7.625 C-7.780625 7.41875 -8.87375 7.2125 -10 7 C-10 6.67 -10 6.34 -10 6 C-7.03 5.34 -4.06 4.68 -1 4 C-0.67 2.68 -0.34 1.36 0 0 Z " fill="#1D161A" transform="translate(352,30)"/>
<path d="M0 0 C2.22189824 2.22189824 2.92598892 4.08482708 4 7 C6.97 7.33 9.94 7.66 13 8 C13 8.66 13 9.32 13 10 C10.36 10 7.72 10 5 10 C5.33 12.64 5.66 15.28 6 18 C4 16 4 16 2 11 C-2.29 10.67 -6.58 10.34 -11 10 C-11 9.34 -11 8.68 -11 8 C-7.04 8 -3.08 8 1 8 C0.67 5.36 0.34 2.72 0 0 Z " fill="#313131" transform="translate(224,153)"/>
<path d="M0 0 C7.26 0 14.52 0 22 0 C21.67 0.99 21.34 1.98 21 3 C14.07 3 7.14 3 0 3 C0 2.01 0 1.02 0 0 Z " fill="#060405" transform="translate(311,128)"/>
<path d="M0 0 C2.31 0 4.62 0 7 0 C7.04241723 2.33294775 7.04092937 4.66702567 7 7 C6 8 6 8 2.4375 8.0625 C1.303125 8.041875 0.16875 8.02125 -1 8 C-1.125 2.25 -1.125 2.25 0 0 Z " fill="#DDDDDD" transform="translate(243,115)"/>
<path d="M0 0 C1.51400391 0.01740234 1.51400391 0.01740234 3.05859375 0.03515625 C4.07050781 0.04417969 5.08242188 0.05320313 6.125 0.0625 C7.29869141 0.07990234 7.29869141 0.07990234 8.49609375 0.09765625 C8.16609375 1.08765625 7.83609375 2.07765625 7.49609375 3.09765625 C4.85609375 3.09765625 2.21609375 3.09765625 -0.50390625 3.09765625 C-0.50390625 5.40765625 -0.50390625 7.71765625 -0.50390625 10.09765625 C-2.15390625 10.42765625 -3.80390625 10.75765625 -5.50390625 11.09765625 C-4.84390625 10.76765625 -4.18390625 10.43765625 -3.50390625 10.09765625 C-3.51550781 9.45957031 -3.52710938 8.82148438 -3.5390625 8.1640625 C-3.54808594 7.33777344 -3.55710937 6.51148438 -3.56640625 5.66015625 C-3.57800781 4.83644531 -3.58960938 4.01273438 -3.6015625 3.1640625 C-3.45649662 0.09446858 -3.08407765 0.12028384 0 0 Z " fill="#020202" transform="translate(315.50390625,159.90234375)"/>
<path d="M0 0 C3.63 0 7.26 0 11 0 C11 0.99 11 1.98 11 3 C8.36 3 5.72 3 3 3 C2.67 5.31 2.34 7.62 2 10 C0.68 10.33 -0.64 10.66 -2 11 C-1.34 7.37 -0.68 3.74 0 0 Z " fill="#0D0D0D" transform="translate(280,160)"/>
<path d="M0 0 C2.64 0 5.28 0 8 0 C7.67 2.64 7.34 5.28 7 8 C4.69 8 2.38 8 0 8 C0 5.36 0 2.72 0 0 Z " fill="#E0E0E0" transform="translate(381,113)"/>
<path d="M0 0 C0.99 0 1.98 0 3 0 C2.88487847 1.72985242 2.75744323 3.45888751 2.625 5.1875 C2.55539062 6.15042969 2.48578125 7.11335937 2.4140625 8.10546875 C1.99784147 11.01508938 1.20125904 13.32890774 0 16 C-0.99 15.67 -1.98 15.34 -3 15 C-2.69257097 12.68682039 -2.37892298 10.37446648 -2.0625 8.0625 C-1.88847656 6.77472656 -1.71445312 5.48695313 -1.53515625 4.16015625 C-1 1 -1 1 0 0 Z " fill="#242424" transform="translate(352,155)"/>
<path d="M0 0 C0.66 0 1.32 0 2 0 C1.67 3.3 1.34 6.6 1 10 C0.01 10 -0.98 10 -2 10 C-1.67 9.34 -1.34 8.68 -1 8 C-2.32 8 -3.64 8 -5 8 C-5 6.35 -5 4.7 -5 3 C-3.35 3 -1.7 3 0 3 C0 2.01 0 1.02 0 0 Z " fill="#E0E0E0" transform="translate(367,160)"/>
<path d="M0 0 C0.33 0 0.66 0 1 0 C1 2.31 1 4.62 1 7 C-2.63 7 -6.26 7 -10 7 C-9.34 5.68 -8.68 4.36 -8 3 C-5.69 3.33 -3.38 3.66 -1 4 C-0.67 2.68 -0.34 1.36 0 0 Z " fill="#010101" transform="translate(276,164)"/>
<path d="M0 0 C3.3 0.33 6.6 0.66 10 1 C10 1.99 10 2.98 10 4 C6.37 4 2.74 4 -1 4 C-0.67 2.68 -0.34 1.36 0 0 Z " fill="#040404" transform="translate(387,167)"/>
<path d="M0 0 C0.99 0.33 1.98 0.66 3 1 C2.67 3.97 2.34 6.94 2 10 C0.68 10.33 -0.64 10.66 -2 11 C-1.34 7.37 -0.68 3.74 0 0 Z " fill="#0E0E0E" transform="translate(369,160)"/>
<path d="M0 0 C1.32 0 2.64 0 4 0 C4.33 2.64 4.66 5.28 5 8 C4.34 8 3.68 8 3 8 C2.67 6.68 2.34 5.36 2 4 C1.67 5.32 1.34 6.64 1 8 C0.34 8 -0.32 8 -1 8 C-0.67 5.36 -0.34 2.72 0 0 Z " fill="#565656" transform="translate(257,160)"/>
<path d="M0 0 C1.65 0 3.3 0 5 0 C5 1.65 5 3.3 5 5 C3.02 5 1.04 5 -1 5 C-0.67 3.35 -0.34 1.7 0 0 Z " fill="#E4E4E4" transform="translate(270,163)"/>
<path d="M0 0 C0.99 0 1.98 0 3 0 C3.33 2.97 3.66 5.94 4 9 C3.01 9.33 2.02 9.66 1 10 C1.33 8.02 1.66 6.04 2 4 C1.01 4 0.02 4 -1 4 C-0.67 2.68 -0.34 1.36 0 0 Z " fill="#696969" transform="translate(370,155)"/>
<path d="M0 0 C1.32 0 2.64 0 4 0 C3.67 2.97 3.34 5.94 3 9 C2.01 8.34 1.02 7.68 0 7 C-0.1875 3.375 -0.1875 3.375 0 0 Z " fill="#282828" transform="translate(293,155)"/>
<path d="M0 0 C0.66 0.33 1.32 0.66 2 1 C1.38125 1.45375 0.7625 1.9075 0.125 2.375 C-2.95957005 6.18535123 -3.30873376 10.23390116 -4 15 C-4.33 15 -4.66 15 -5 15 C-5.29047722 9.38410702 -5.10842092 5.90174068 -2 1 C-1.34 0.67 -0.68 0.34 0 0 Z " fill="#C08AAF" transform="translate(223,97)"/>
<path d="M0 0 C2.93814003 1.46907001 3.3286226 3.59447806 4.625 6.5625 C5.07101562 7.57441406 5.51703125 8.58632812 5.9765625 9.62890625 C6.31429688 10.41136719 6.65203125 11.19382812 7 12 C6.01 12 5.02 12 4 12 C3.32645501 10.56570999 2.66140299 9.12742943 2 7.6875 C1.62875 6.88699219 1.2575 6.08648437 0.875 5.26171875 C0 3 0 3 0 0 Z " fill="#252525" transform="translate(332,66)"/>
<path d="M0 0 C0 2.31 0 4.62 0 7 C-1.32 7.33 -2.64 7.66 -4 8 C-3.74438677 5.6568787 -3.40729228 3.32156597 -3 1 C-1 0 -1 0 0 0 Z " fill="#111111" transform="translate(353,163)"/>
<path d="M0 0 C1.64350079 3.28700157 2.41321669 5.47930015 3 9 C1.35 9.33 -0.3 9.66 -2 10 C-1.34 9.67 -0.68 9.34 0 9 C0 6.03 0 3.06 0 0 Z " fill="#1F1F1F" transform="translate(312,161)"/>
<path d="M0 0 C0.33 0 0.66 0 1 0 C1 2.31 1 4.62 1 7 C0.01 7 -0.98 7 -2 7 C-1.125 1.125 -1.125 1.125 0 0 Z " fill="#111111" transform="translate(383,164)"/>
</svg>
